HIERARCHY
ROOT Hips
{
	OFFSET -14.64140 90.27770 -84.91600
	CHANNELS 6 Xposition Yposition Zposition Zrotation Xrotation Yrotation
	JOINT Spine
	{
		OFFSET 0.00000 13.20850 -1.60436
		CHANNELS 3 Zrotation Xrotation Yrotation
		JOINT Spine1
		{
			OFFSET 0.00000 8.61716 0.00000
			CHANNELS 3 Zrotation Xrotation Yrotation
			JOINT Spine2
			{
				OFFSET 0.00000 8.61717 0.00000
				CHANNELS 3 Zrotation Xrotation Yrotation
				JOINT Spine3
				{
					OFFSET 0.00000 8.61717 0.00000
					CHANNELS 3 Zrotation Xrotation Yrotation
					JOINT Neck
					{
						OFFSET 0.00000 11.07920 1.10792
						CHANNELS 3 Zrotation Xrotation Yrotation
						JOINT Neck1
						{
							OFFSET 0.00000 7.08032 0.00000
							CHANNELS 3 Zrotation Xrotation Yrotation
							JOINT Head
							{
								OFFSET 0.00000 7.08031 0.00000
								CHANNELS 3 Zrotation Xrotation Yrotation
								End site
								{
									OFFSET 0.00000 0.00000 0.00000
								}
							}
						}
					}
					JOINT RightShoulder
					{
						OFFSET -0.01000 7.91373 5.19711
						CHANNELS 3 Zrotation Xrotation Yrotation
						JOINT RightArm
						{
							OFFSET -18.41580 0.00000 0.00000
							CHANNELS 3 Zrotation Xrotation Yrotation
							JOINT RightForeArm
							{
								OFFSET -29.11090 0.00000 0.00000
								CHANNELS 3 Zrotation Xrotation Yrotation
								JOINT RightHand
								{
									OFFSET -24.65040 0.00000 0.00000
									CHANNELS 3 Zrotation Xrotation Yrotation
									JOINT RightHandThumb1
									{
										OFFSET -5.35114 -0.85590 3.97906
										CHANNELS 3 Zrotation Xrotation Yrotation
										JOINT RightHandThumb2
										{
											OFFSET -4.52789 0.00000 0.00000
											CHANNELS 3 Zrotation Xrotation Yrotation
											JOINT RightHandThumb3
											{
												OFFSET -2.46976 0.00000 0.00000
												CHANNELS 3 Zrotation Xrotation Yrotation
												End site
												{
													OFFSET 0.00000 0.00000 0.00000
												}
											}
										}
									}
									JOINT RightHandIndex1
									{
										OFFSET -14.26970 0.00000 2.88139
										CHANNELS 3 Zrotation Xrotation Yrotation
										JOINT RightHandIndex2
										{
											OFFSET -5.48836 0.00000 0.00000
											CHANNELS 3 Zrotation Xrotation Yrotation
											JOINT RightHandIndex3
											{
												OFFSET -3.01859 0.00000 0.00000
												CHANNELS 3 Zrotation Xrotation Yrotation
												End site
												{
													OFFSET 0.00000 0.00000 0.00000
												}
											}
										}
									}
									JOINT RightHandMiddle1
									{
										OFFSET -14.26970 0.00000 -0.09147
										CHANNELS 3 Zrotation Xrotation Yrotation
										JOINT RightHandMiddle2
										{
											OFFSET -6.17441 0.00000 0.00000
											CHANNELS 3 Zrotation Xrotation Yrotation
											JOINT RightHandMiddle3
											{
												OFFSET -3.56743 0.00000 0.00000
												CHANNELS 3 Zrotation Xrotation Yrotation
												End site
												{
													OFFSET 0.00000 0.00000 0.00000
												}
											}
										}
									}
									JOINT RightHandRing1
									{
										OFFSET -12.69180 0.00000 -3.06433
										CHANNELS 3 Zrotation Xrotation Yrotation
										JOINT RightHandRing2
										{
											OFFSET -5.62556 0.00000 0.00000
											CHANNELS 3 Zrotation Xrotation Yrotation
											JOINT RightHandRing3
											{
												OFFSET -3.56744 0.00000 0.00000
												CHANNELS 3 Zrotation Xrotation Yrotation
												End site
												{
													OFFSET 0.00000 0.00000 0.00000
												}
											}
										}
									}
									JOINT RightHandPinky1
									{
										OFFSET -11.11390 0.00000 -6.03719
										CHANNELS 3 Zrotation Xrotation Yrotation
										JOINT RightHandPinky2
										{
											OFFSET -4.52789 0.00000 0.00000
											CHANNELS 3 Zrotation Xrotation Yrotation
											JOINT RightHandPinky3
											{
												OFFSET -2.46976 0.00000 0.00000
												CHANNELS 3 Zrotation Xrotation Yrotation
												End site
												{
													OFFSET 0.00000 0.00000 0.00000
												}
											}
										}
									}
								}
							}
						}
					}
					JOINT LeftShoulder
					{
						OFFSET 0.01000 7.91373 5.19711
						CHANNELS 3 Zrotation Xrotation Yrotation
						JOINT LeftArm
						{
							OFFSET 18.41580 0.00000 0.00000
							CHANNELS 3 Zrotation Xrotation Yrotation
							JOINT LeftForeArm
							{
								OFFSET 29.11090 0.00000 0.00000
								CHANNELS 3 Zrotation Xrotation Yrotation
								JOINT LeftHand
								{
									OFFSET 24.65040 0.00000 0.00000
									CHANNELS 3 Zrotation Xrotation Yrotation
									JOINT LeftHandThumb1
									{
										OFFSET 5.35114 -0.85590 3.97906
										CHANNELS 3 Zrotation Xrotation Yrotation
										JOINT LeftHandThumb2
										{
											OFFSET 4.52789 0.00000 0.00000
											CHANNELS 3 Zrotation Xrotation Yrotation
											JOINT LeftHandThumb3
											{
												OFFSET 2.46977 0.00000 0.00000
												CHANNELS 3 Zrotation Xrotation Yrotation
												End site
												{
													OFFSET 0.00000 0.00000 0.00000
												}
											}
										}
									}
									JOINT LeftHandIndex1
									{
										OFFSET 14.26970 0.00000 2.88139
										CHANNELS 3 Zrotation Xrotation Yrotation
										JOINT LeftHandIndex2
										{
											OFFSET 5.48836 0.00000 0.00000
											CHANNELS 3 Zrotation Xrotation Yrotation
											JOINT LeftHandIndex3
											{
												OFFSET 3.01859 0.00000 0.00000
												CHANNELS 3 Zrotation Xrotation Yrotation
												End site
												{
													OFFSET 0.00000 0.00000 0.00000
												}
											}
										}
									}
									JOINT LeftHandMiddle1
									{
										OFFSET 14.26970 0.00000 -0.09147
										CHANNELS 3 Zrotation Xrotation Yrotation
										JOINT LeftHandMiddle2
										{
											OFFSET 6.17440 0.00000 0.00000
											CHANNELS 3 Zrotation Xrotation Yrotation
											JOINT LeftHandMiddle3
											{
												OFFSET 3.56744 0.00000 0.00000
												CHANNELS 3 Zrotation Xrotation Yrotation
												End site
												{
													OFFSET 0.00000 0.00000 0.00000
												}
											}
										}
									}
									JOINT LeftHandRing1
									{
										OFFSET 12.69180 0.00000 -3.06433
										CHANNELS 3 Zrotation Xrotation Yrotation
										JOINT LeftHandRing2
										{
											OFFSET 5.62556 0.00000 0.00000
											CHANNELS 3 Zrotation Xrotation Yrotation
											JOINT LeftHandRing3
											{
												OFFSET 3.56744 0.00000 0.00000
												CHANNELS 3 Zrotation Xrotation Yrotation
												End site
												{
													OFFSET 0.00000 0.00000 0.00000
												}
											}
										}
									}
									JOINT LeftHandPinky1
									{
										OFFSET 11.11390 0.00000 -6.03719
										CHANNELS 3 Zrotation Xrotation Yrotation
										JOINT LeftHandPinky2
										{
											OFFSET 4.52789 0.00000 0.00000
											CHANNELS 3 Zrotation Xrotation Yrotation
											JOINT LeftHandPinky3
											{
												OFFSET 2.46976 0.00000 0.00000
												CHANNELS 3 Zrotation Xrotation Yrotation
												End site
												{
													OFFSET 0.00000 0.00000 0.00000
												}
											}
										}
									}
								}
							}
						}
					}
					JOINT pCube4
					{
						OFFSET 0.00000 10.91090 1.10792
						CHANNELS 3 Zrotation Xrotation Yrotation
						End site
						{
							OFFSET 0.00000 0.00000 0.00000
						}
					}
				}
			}
		}
	}
	JOINT RightUpLeg
	{
		OFFSET -9.98441 0.00000 0.00000
		CHANNELS 3 Zrotation Xrotation Yrotation
		JOINT RightLeg
		{
			OFFSET 0.00000 -42.11790 0.00000
			CHANNELS 3 Zrotation Xrotation Yrotation
			JOINT RightFoot
			{
				OFFSET 0.00000 -45.00020 -0.00001
				CHANNELS 3 Zrotation Xrotation Yrotation
				JOINT RightForeFoot
				{
					OFFSET 0.00000 -3.74820 0.00000
					CHANNELS 3 Zrotation Xrotation Yrotation
					JOINT RightToeBase
					{
						OFFSET 0.00000 0.06325 14.43120
						CHANNELS 3 Zrotation Xrotation Yrotation
						End site
						{
							OFFSET 0.00000 0.00000 0.00000
						}
					}
				}
			}
		}
	}
	JOINT LeftUpLeg
	{
		OFFSET 9.98441 0.00000 0.00000
		CHANNELS 3 Zrotation Xrotation Yrotation
		JOINT LeftLeg
		{
			OFFSET 0.00000 -42.11800 0.00000
			CHANNELS 3 Zrotation Xrotation Yrotation
			JOINT LeftFoot
			{
				OFFSET 0.00000 -45.00070 0.00000
				CHANNELS 3 Zrotation Xrotation Yrotation
				JOINT LeftForeFoot
				{
					OFFSET 0.00000 -3.74824 0.00000
					CHANNELS 3 Zrotation Xrotation Yrotation
					JOINT LeftToeBase
					{
						OFFSET 0.00000 0.06325 14.43110
						CHANNELS 3 Zrotation Xrotation Yrotation
						End site
						{
							OFFSET 0.00000 0.00000 0.00000
						}
					}
				}
			}
		}
	}
}
MOTION
Frames: 4
Frame Time: 0.050000
-0.044022455699086464 -0.038672671823597814 -0.013013334660467453 -0.017461799772860064 0.0009110722748239772 0.015247314198989937 0.21206305989678648 3.610552036745758 -1.3122535095903158 -1.0288078254783082 3.4980710898044767 0.450951168836533 -0.9938204013748327 -1.0801983374943716 0.8920179386862631 -1.3880860173283727 -0.3416612839551844 -0.4602941942890269 -0.5040470403307645 11.550981701901753 1.270755187862154 -0.03980007601264804 -0.40281370298631786 1.419559357990649 -0.2053978393037202 -15.716689582937164 0.17366287880377748 -9.002292593891006 3.360746093476643 -14.558853179583085 62.73903249459767 -19.636981655689546 27.58023294774282 20.226330035047816 -4.669352240831948 80.899154191377 16.417496278813847 -0.4651849296671354 -4.697541550318196 4.506544141327225 -0.1194894242252791 -1.5862833391857225 -0.009642225826489577 -0.012334282157996286 -56.248843491760326 0.01747076276286626 0.003257172549215836 -56.25928270169228 -38.77394577461519 -0.017446296963715087 0.033443999896859644 -0.020449216932036884 -0.01751886243066923 -0.007000665711700491 -0.015025335768705232 -0.045146331134959215 -0.04587659554192733 -36.724640158553186 0.029247473888748533 -0.005520721395046827 0.02851086176257256 0.0012438010270255737 0.03905808042552725 -0.04541869259265991 0.0370910478267874 -0.03341120006467145 -19.719394730613388 -0.009653469172624959 0.003519051520604222 -0.04108501286010074 0.016634533953762326 -0.003310008342680314 0.002721793758617133 -0.03908750404900642 0.027620812122538755 24.04764739821508 -0.04044525432147747 -0.030602297795949703 28.885758877926897 0.010963800854430222 -0.003066609829303583 28.829712497238486 0.032532388945904024 0.035177366272969426 7.447280207370791 1.9175611777210073 13.10273886471423 -62.304055895623655 16.424537099043228 -18.28684986882053 7.972316331821789 -8.423861422525013 -50.56779676858585 -17.596197351771586 -0.6409531627941688 3.5277154776846884 -0.5085893992269968 0.01864125171432105 -8.089713595929572 -0.029260381617670913 0.019542903156392732 44.61384551557318 -0.019654095831813333 -0.027414331620979 44.5288717588125 12.44570960987804 -0.04142861065224198 0.015265186758425055 -0.022567558949029017 -0.006599755802840046 -0.020238231763869723 0.01830258620187504 0.006135324439717197 0.03258903662888243 11.085894117762278 0.03871710534639804 0.01884886487460788 -0.01067548292218918 0.00016355266167894167 -0.038784975819024375 0.0048183964679373225 -0.025760759629229513 -0.0012915764642600874 4.796742119396839 0.024589910073535386 -0.03819195490622008 0.0018437715954208905 -0.02588306179455594 -0.04367025274949621 -0.005902577370486017 -0.0025222607731683663 -0.047479418335944136 -5.594148658990706 0.025343979148687468 0.01553492155149656 -6.710429254316929 -0.011571417834278206 0.00795832966774816 -6.703296977432647 0.012118600552352051 0.025283414324431944 -0.043833876528694124 0.028427311762583216 -0.024081795919889678 8.077670903070883 3.4739861079161867 -19.243815918262722 0.009398187503728266 10.392790450718685 0.06279634795679731 -5.652829084078204 -15.640915005940547 3.1987867961581578 0.004162049701786721 0.012381024664947653 -0.001632195955560116 0.020210311718621348 4.674028073032842 0.030798720188151576 12.500682217316086 -8.233862075317711 6.848338638510322 -0.029721150914853414 46.392984080362815 0.005899148825058706 -4.3524492190087045 -14.788809536946872 -3.858724731227813 -0.015985409283848805 -0.006307898837150841 -0.03960099405492746 -0.03646587091211838 -10.77785102853531 0.03209803047396947 
-0.007482244135591353 0.003432701008388764 -0.045832671815460344 -0.02525076837455699 -0.02100536832421787 -0.025420841676886324 0.42017051604884237 3.5479708487340376 -1.3914470353833421 -1.0354883431399602 3.5265119256818824 0.48319820645791106 -1.0495639560453234 -1.037430097900759 0.8041660356334152 -1.218578574548998 -0.3342411819479807 -0.4099536194800886 -0.24699305566470783 11.34124215573135 0.5546648739541203 0.06381372136266172 -0.46314292370260635 -0.13957365610416067 0.08939012659364728 -15.932353825916932 -0.025553795933163894 -9.346187989639889 3.4511707655976407 -14.91410276265347 63.23099537730125 -21.572722303926582 27.40943643911225 19.312447889626494 -4.030181143396974 80.62149864097915 15.361605253022512 -0.5035450092372546 -4.371004459422149 4.501607456582256 -0.174826771732816 -1.5769520311923528 0.0031372524837201786 0.029863948099792755 -56.24127049825879 -0.03807141187720502 -0.018377918271276425 -56.220207256685036 -38.7657622893796 -0.009853584496733101 -0.003887129840863396 -0.04256015978587701 0.02957708391222905 0.00929048273496916 -0.027406114657875656 0.005093421565195494 0.04199180693122026 -36.71641651132513 -0.012105822198166624 -0.003145691662319184 0.04481564209858119 -0.032448587672895754 -0.028795792345478143 0.01889957961813309 0.036577158913560504 -0.01050544868413913 -19.775640041345728 -0.019895173239409196 -0.042395504373553515 0.032902898727800084 -0.008481325237281805 -0.011822947472131856 -0.008869200048435423 0.022265933235488648 -0.04332124149304671 24.014999261007475 0.04401976911425319 0.009627791741907305 28.858447584816428 -0.02058783074847552 0.004940288931269603 28.824607748457343 -0.035398749395062684 0.04007938738906383 7.163250262143154 1.79218759280862 13.082865604593586 -62.85442994172037 16.89974163476398 -17.293046643682537 6.834856483046766 -7.576038165456144 -50.43730809121645 -17.328410644772298 -1.1915929783128207 3.711692087497028 -0.4840935407232925 0.11379038107672824 -8.091145199610533 -0.021157171760769023 -0.018060519411505313 44.571359844455884 -0.001414496009664581 0.01041035225130365 44.589868622704316 12.42611734100065 -0.00697021312699641 0.019634310387068726 -0.0021159186967665937 -0.01102442592472845 0.002696952535569176 -0.04921001311891299 -0.012351165632688814 -0.03597972908372405 11.116838115224514 -0.022323929055797633 -0.01981838875545401 0.006536580990300944 -0.0025928382576730492 0.01799626918932598 0.018100116319713127 -0.04471937704253334 -0.034896706590648266 4.774451920019121 -0.012967415261751545 0.00846397529019041 -0.030811152245068273 -0.03270618875227666 -0.015283135416338937 -0.020354334685473336 -0.007903098004134135 -0.02237539130927301 -5.568465299623195 -0.02643252970391292 -0.00834564600904799 -6.674100792302591 0.03005082425454998 -0.024693616231117578 -6.740612020045847 0.023125691916282668 -0.01470872628797089 0.04141098648953978 0.0004164315191767136 -0.000866565385696958 8.045323521596508 3.459453924630455 -19.219675689296714 0.01657177551074651 10.34807811192101 -0.015324648167955281 -5.635482547650635 -15.7002013257406 3.198412831243757 0.03254375439459741 0.033861925086615195 0.0258563652228088 -0.009520646553737425 4.657865016759881 0.018303803992074017 12.486997805545197 -8.220290108137238 6.900808086636106 0.0024878926185665407 46.404952917015414 0.032214227537387 -4.328861505017588 -14.784042174072383 -3.8511208797105003 0.04296989439674514 -0.034927118062965855 -0.018098025581423958 -0.015304689576230367 -10.765019598680178 0.02892132810201688 
0.03245834270565055 0.041457517729806326 -0.004989674124789509 -0.03718382211087157 -0.005587546296912583 -0.02414635622291243 0.570010698714908 3.7618756980793933 -1.4487748498025828 -1.021039815219176 3.5358135303318594 0.49237636294027537 -1.017352091153751 -0.8642278893393488 0.6122918129431705 -0.9633773073604951 -0.38459578177838505 -0.43320000495899436 -0.14019562133699862 11.123742219060219 0.044128920745170885 0.06536521714842437 -0.7078005391079482 -1.0147789244886505 0.19962293281201116 -16.22406935188866 -0.037402191771286245 -9.149567955972417 3.2965843274307014 -15.286903083670117 64.3465997643524 -22.378997426619442 25.12458238602263 19.504029397850328 -3.014812238014283 80.08778886197288 14.556322121392045 -0.5284402867589555 -4.124970872377045 4.5261276212642825 -0.14643829150517207 -1.6282182633197098 -0.02370827830630036 -0.006950535899847277 -56.197711574163726 -0.01201167762314847 -0.049113409564107445 -56.24311963190509 -38.741067186607786 -0.04284999876581831 -0.004163738639067901 -0.03743462959189726 0.02991647112956974 -0.014422897833505898 -0.046332168182747435 -0.03452109466465944 0.0035396277672562794 -36.687528450157586 -0.009850105019609694 0.003033864609011208 0.0472110183542198 -0.04814466736539423 0.01627649522615363 -0.004809402263552603 0.004444406260706272 -0.012620261577847274 -19.721230829468848 0.007153195729854763 0.004544670626859034 -0.017160957452708424 -0.0042570121695012855 0.027612584982230255 -0.024476881653253905 0.020316301485318166 0.006028666966054905 24.014912470488305 -0.012034109986907156 0.03038731382509569 28.86051566070123 0.03257964393875755 0.03923562032425422 28.867011565832954 -0.03924786393470048 0.029834051710211328 6.787619474575029 1.8000209095646282 12.95908122647568 -63.47535826323697 17.727033330047124 -16.331711199868554 5.462232827376536 -6.485143580496209 -51.06519573569424 -16.7308234603364 -1.6596529847611456 4.015832093231242 -0.4330387724794762 0.11391878518820733 -8.089695035186312 0.005629055468830782 -0.015558653696986427 44.547863355856045 -0.010112804283892354 0.04051994597725641 44.56787123156666 12.439459768114336 0.00527884292583946 0.006545707720637248 0.009241095106505708 0.0013376658701817399 0.013679673383543447 0.008765588429124253 0.0325893737899556 -0.018174384354835524 11.13059134503255 0.03812854113930616 0.03421855286802467 -0.013632734897699101 -0.036571897544467186 -0.02168453965182774 0.012593648331248656 -0.01811058117262596 0.0030985538806101217 4.788238318072736 -0.0017183245127373804 0.03271489337921531 -0.01661882896153997 0.00436559767064632 0.019050299187525335 -0.006567959564707449 -0.003915611651230119 0.03588739485604084 -5.600771313238283 -0.03838853698156913 0.03881521941112257 -6.7411944474504555 -0.01607448571293036 -0.009340723888702782 -6.702838603142018 0.0031603145871530046 -0.02612854277191082 -0.025298607961229548 -0.004804801999614341 0.010506289123964853 8.088050305850523 3.4552767822764165 -19.176152665538226 0.0036217640545171494 10.370585541578766 0.06164590790911599 -5.638170930560296 -15.694580523634265 3.1456074118462585 0.012043108473247785 0.013490247503598719 0.003973838191145317 0.017505681668177512 4.7399106705048215 0.03305345208687432 12.48947208617124 -8.22948100894795 6.840996712919228 -0.013746631234194473 46.36913440470702 -0.00890375102014045 -4.332885359109498 -14.718059629226131 -3.8336264595321703 -0.03217024198216394 0.03572643828719433 -0.003586260693633007 0.016951609210560995 -10.777518642424278 -0.034119705834977025 
-0.0181782960799524 -0.030168699234940005 -0.023709305295102814 -0.01925473872756203 -0.022128573080956615 0.026105415934968956 0.5969851014653157 4.108949598423199 -1.4759357440281622 -1.034820457039447 3.621504739485455 0.4354450839404099 -1.0237077550911582 -0.6753301760955489 0.32894020788171563 -0.6683738442608861 -0.2527731868740156 -0.4919719204298195 -0.03072938842370609 10.842347411802367 -0.24902431954500046 0.10357914503653463 -0.9711594633250636 -1.597948813350934 0.28352570055034454 -16.65009139671526 -0.17227877299259464 -8.679559536111647 3.1611064863287797 -15.535669249995744 65.66361251514486 -22.73776007945001 22.1367350756544 20.373919235736277 -2.122338210266155 78.93378486785357 13.81195915636494 -0.4653117197744978 -3.9873151656567023 4.5498894500016265 -0.11237864133790365 -1.5448800456711256 -0.024521956261453363 -0.035444530091362454 -56.190402535810335 -0.03521867805079953 -0.007288756408507335 -56.239904181074884 -38.74676464539379 0.01288028430288923 0.03211222121662195 -0.0474820360533363 0.02690613026676305 -0.021887512421681493 0.019595354306496622 0.019124516920013337 0.03001553651163762 -36.69240775683108 0.007340120933922569 -0.001699724719354288 -0.007238600501260878 -0.006330499107284295 -0.007582202248097251 -0.04028776059493664 -0.0042564644879647005 0.0355063492440699 -19.75993225103171 0.025513140455524743 0.02268293071986204 0.019270823728696082 0.02227660228899676 0.017869510661372087 0.031235507855689387 0.00022287608093494432 -0.02814977642649453 24.037762938036025 0.033393203758714095 -0.026555346271397974 28.876863094773807 -0.031069100874059303 0.0233697347845743 28.895931085823474 0.0047133939994139975 -0.0011709447579313363 6.327835417349964 1.6638646791680483 12.919354773165978 -63.83455674143382 18.756690696940144 -15.467730391765265 3.6529427570150763 -5.209040995696743 -52.46930394833084 -16.01824702916749 -2.0450189789003437 4.099279103493193 -0.4371271634064829 0.06145345013741489 -8.135875912940218 -0.0030608909695225917 0.028021323797621265 44.58194812762608 -0.04121269179989141 -0.013638880592391805 44.56014330868454 12.446281775867746 0.028343732903767863 0.006621083731690059 0.03148041706125658 0.02366482905244207 0.013562569602999735 0.02472372809384726 -0.03625417291029255 -0.02134447388064541 11.093287811531612 -0.008077243431713553 -0.019569328185382612 -0.0009888003269821785 -0.019727350190470415 0.004204592918911809 0.0009720389672790701 -0.02242962854448659 0.03669558766035669 4.82067676863343 -0.006869282783693951 -0.008072888967827258 0.023522009536832717 0.015772232594396435 -0.02670233749961725 -0.008579524086060646 0.014069178388386951 0.023641676117798504 -5.555931651267828 0.019045281894646895 -0.0480477952926912 -6.7417593025740885 -0.031403821876836685 0.0018423329985388522 -6.738269756167726 0.03796191585230994 -0.005933680758866491 -0.04319717719313055 -0.0387660471768093 -0.0007369697712439829 8.01231673939237 3.4793652649580653 -19.249963041386724 -0.007901309755156124 10.377170947972246 -0.012928142456095061 -5.663175046067652 -15.610561459275887 3.17553263249957 0.0343834131242628 0.03478703219121413 0.04954387283149295 0.012694593813472457 4.662415401587401 -0.04883637682629726 12.412074457235196 -8.285827248762285 6.897644686554088 -0.019738031039089075 46.38353831495613 -0.020855535805963287 -4.314435638495456 -14.720354220054094 -3.835327515306388 0.025083710824351704 -0.011705111028620058 -0.02991913497609574 -0.01790560384609347 -10.757416607313468 -0.019057981662433818 
